<svg width="166" height="33" viewBox="0 0 166 33" fill="none" xmlns="http://www.w3.org/2000/svg">
<path d="M13.3274 17.552H18.1754C20.8314 17.552 22.6874 16.864 23.7434 15.488C24.6394 14.304 25.0874 12.416 25.0874 9.824C25.0874 7.104 24.4954 5.04 23.3114 3.632C22.1274 2.224 20.3034 1.52 17.8394 1.52H15.5354C14.8634 1.52 14.3674 1.568 14.0474 1.664C13.7274 1.76 13.5194 1.968 13.4234 2.288C13.3594 2.576 13.3274 3.184 13.3274 4.112V17.552ZM13.3274 17.984V28.784C13.3274 29.712 13.3914 30.304 13.5194 30.56C13.5834 30.688 13.8074 30.832 14.1914 30.992C14.5754 31.12 15.3274 31.232 16.4474 31.328C17.5674 31.424 19.1034 31.472 21.0554 31.472V32H0.319375V31.472C1.95138 31.472 3.29538 31.424 4.35138 31.328C5.43938 31.232 6.17538 31.12 6.55938 30.992C6.94338 30.832 7.16738 30.688 7.23138 30.56C7.35938 30.304 7.42338 29.712 7.42338 28.784V4.112C7.42338 3.248 7.35938 2.688 7.23138 2.432C7.16738 2.304 6.97538 2.176 6.65538 2.048C5.66338 1.696 3.55138 1.52 0.319375 1.52V1.04H18.9434C22.7514 1.04 25.7594 1.92 27.9674 3.68C30.0474 5.344 31.0874 7.52 31.0874 10.208C31.0874 12.032 30.2874 13.696 28.6874 15.2C26.7034 17.056 24.0154 17.984 20.6234 17.984H13.3274ZM44.1666 15.344H48.6306C50.9666 15.344 52.6946 14.912 53.8146 14.048C55.1586 13.024 55.8306 11.296 55.8306 8.864C55.8306 6.176 55.2706 4.288 54.1506 3.2C53.0626 2.08 51.2386 1.52 48.6786 1.52H46.3746C45.7026 1.52 45.2066 1.568 44.8866 1.664C44.5666 1.76 44.3586 1.968 44.2626 2.288C44.1986 2.576 44.1666 3.184 44.1666 4.112V15.344ZM63.6066 25.088V26.672C63.6066 28.56 63.4306 29.872 63.0786 30.608C62.5026 31.824 61.3666 32.432 59.6706 32.432C57.4626 32.432 56.0066 31.6 55.3026 29.936C54.7266 28.592 54.4386 26.032 54.4386 22.256V21.248C54.4386 20.928 54.4546 20.592 54.4866 20.24C54.4866 18.544 54.0866 17.408 53.2866 16.832C52.4866 16.224 51.3346 15.92 49.8306 15.92H44.1666V28.784C44.1666 29.744 44.2146 30.352 44.3106 30.608C44.4386 30.864 44.6786 31.072 45.0306 31.232C45.4146 31.36 46.1666 31.44 47.2866 31.472C48.4386 31.504 49.6386 31.52 50.8866 31.52V32H31.3506V31.472C34.7106 31.472 36.7266 31.344 37.3986 31.088C37.7186 30.96 37.9426 30.784 38.0706 30.56C38.1986 30.304 38.2626 29.712 38.2626 28.784V4.112C38.2626 3.216 38.1986 2.656 38.0706 2.432C38.0066 2.304 37.7986 2.176 37.4466 2.048C36.5186 1.696 34.4866 1.52 31.3506 1.52V1.04H50.9826C54.4386 1.04 57.1906 1.968 59.2386 3.824C60.8706 5.296 61.6866 6.816 61.6866 8.384C61.6866 10.24 61.0466 11.76 59.7666 12.944C58.2306 14.384 55.7986 15.296 52.4706 15.68C55.8626 16.352 58.1026 18.256 59.1906 21.392C59.7346 22.96 60.0066 25.328 60.0066 28.496C60.0066 29.424 60.0866 30.096 60.2466 30.512C60.4066 30.928 60.7906 31.136 61.3986 31.136C62.0706 31.136 62.5346 30.608 62.7906 29.552C63.0466 28.464 63.1746 26.976 63.1746 25.088H63.6066ZM82.6821 20.624L78.2661 8.432L73.8501 20.624H82.6821ZM82.9221 21.2H73.6101L72.1221 25.424C71.7381 26.48 71.5461 27.392 71.5461 28.16C71.5461 29.344 71.9941 30.192 72.8901 30.704C73.7861 31.216 75.0501 31.472 76.6821 31.472V32H64.5381V31.472C66.7461 31.472 68.4581 30.64 69.6741 28.976C70.3461 28.048 71.2101 26.128 72.2661 23.216L80.3781 0.655997H81.3861L91.7061 28.784C92.1861 30.096 92.6661 30.88 93.1461 31.136C93.6261 31.36 95.0661 31.472 97.4661 31.472V32H79.8021V31.472C82.2021 31.472 83.8501 31.392 84.7461 31.232C85.6421 31.04 86.0901 30.672 86.0901 30.128L85.9941 29.648L82.9221 21.2ZM116.544 32H97.8719V31.472C99.3119 31.472 100.544 31.424 101.568 31.328C102.592 31.232 103.296 31.12 103.68 30.992C104.064 30.832 104.288 30.688 104.352 30.56C104.48 30.336 104.544 29.744 104.544 28.784V4.208C104.544 3.312 104.48 2.736 104.352 2.48C104.288 2.352 104.08 2.224 103.728 2.096C102.704 1.712 100.752 1.52 97.8719 1.52V1.04H116.592C120.208 1.04 123.472 2.368 126.384 5.024C129.744 8.064 131.424 11.952 131.424 16.688C131.424 21.36 129.936 25.12 126.96 27.968C124.144 30.656 120.672 32 116.544 32ZM116.544 31.472C119.584 31.472 121.792 30.24 123.168 27.776C124.576 25.312 125.28 21.616 125.28 16.688C125.28 12.016 124.576 8.368 123.168 5.744C121.664 2.928 119.456 1.52 116.544 1.52C115.008 1.52 113.824 1.552 112.992 1.616C112.192 1.648 111.616 1.728 111.264 1.856C110.944 1.984 110.72 2.176 110.592 2.432C110.496 2.656 110.448 3.248 110.448 4.208V28.784C110.448 29.712 110.496 30.32 110.592 30.608C110.72 30.896 110.944 31.104 111.264 31.232C111.584 31.36 112.272 31.44 113.328 31.472C114.384 31.472 115.456 31.472 116.544 31.472ZM150.651 20.624L146.235 8.432L141.819 20.624H150.651ZM150.891 21.2H141.579L140.091 25.424C139.707 26.48 139.515 27.392 139.515 28.16C139.515 29.344 139.963 30.192 140.859 30.704C141.755 31.216 143.019 31.472 144.651 31.472V32H132.507V31.472C134.715 31.472 136.427 30.64 137.643 28.976C138.315 28.048 139.179 26.128 140.235 23.216L148.347 0.655997H149.355L159.675 28.784C160.155 30.096 160.635 30.88 161.115 31.136C161.595 31.36 163.035 31.472 165.435 31.472V32H147.771V31.472C150.171 31.472 151.819 31.392 152.715 31.232C153.611 31.04 154.059 30.672 154.059 30.128L153.963 29.648L150.891 21.2Z" fill="black"/>
</svg>
